<svg id="visual" viewBox="0 0 800 544" width="800" height="544" xmlns="http://www.w3.org/2000/svg" xmlns:xlink="http://www.w3.org/1999/xlink" version="1.1"><g transform="translate(403.7036593458938 271.25390670573705)"><path d="M124.1 -199.7C173.1 -186.6 233.8 -178.3 259.9 -145.8C286 -113.3 277.5 -56.7 273.2 -2.5C268.8 51.7 268.6 103.3 247.9 145C227.1 186.8 185.8 218.5 141.1 228.1C96.3 237.7 48.2 225.1 2.4 220.9C-43.3 216.7 -86.7 220.9 -124.9 207.6C-163.2 194.3 -196.3 163.4 -223.8 125.9C-251.3 88.3 -273.2 44.2 -281.7 -4.9C-290.2 -54 -285.4 -108 -254.5 -139.6C-223.6 -171.2 -166.5 -180.4 -119.8 -194.9C-73 -209.4 -36.5 -229.2 0.5 -230.1C37.5 -231 75 -212.9 124.1 -199.7" fill="#9da1ca"></path></g></svg>